<?xml version="1.0" encoding="utf-8"?>
<svg xmlns="http://www.w3.org/2000/svg" viewBox="260 218 505 585">
  <path fill="#C25B1E" d="M274.446 230.166C278.332 229.629 283.034 229.328 287.002 229.077C363.521 224.24 440.619 249.527 503.419 292.569C517.567 302.265 530.447 313.483 543.256 324.746C527.958 340.963 520.22 360.554 527.327 382.873C534.619 405.776 558.329 418.899 578.628 429.065C567.395 382.069 568.365 329.87 608.183 296.202C603.561 292.11 596.796 287.78 591.456 283.226C576.887 270.799 563.844 250.342 559.347 231.662C580.332 253.2 620.137 270.577 649.965 275.93C662.059 278.1 673.103 276.306 683.908 283.382C692.885 289.26 692.713 294.89 698.539 301.951C705.495 310.383 721.322 313.954 731.819 314.746L729.995 305.676C750.457 317.955 757.753 338.032 745.63 359.43C741.723 346.103 734.983 343.615 723.176 338.132L722.531 339.523C734.958 349.428 737.333 360.917 726.606 373.887C725.22 375.563 724 376.562 722.207 377.861C721.644 368.237 720.653 363.739 713.315 356.421C701.112 344.225 669.038 339.978 657.137 353.837C641.828 371.666 659.029 401.276 664.764 419.71C681.396 473.161 659.918 528.36 616.728 562.167C609.849 567.551 602.167 573.851 594.651 578.284L607.705 617.692C609.64 623.463 611.538 629.638 613.987 635.208C615.137 637.824 618.661 641.065 620.506 643.69C649.179 636.983 672.184 648.383 684.669 674.914C658.004 673.028 628.937 673.468 602.154 675.142C598.459 675.373 593.826 677.316 590.504 678.94C590.478 654.922 580.913 631.898 563.914 614.932C555.041 605.935 545.741 599.861 534.539 594.09C555.21 572.38 555.969 552.002 531.695 532.588C527.706 566.165 503.801 583.768 478.052 600.537C474.687 602.728 473.626 605.963 472.461 609.722C477.154 621.473 483.059 633.812 493.089 641.979C519.164 640.26 539.475 650.632 550.836 674.61C523.747 674.186 484.123 674.122 457.503 678.674C461.506 666.217 462.224 655.249 455.651 643.626C444.794 624.428 429.084 616.606 407.985 618.629C415.161 608.679 422.656 603.029 432.333 595.672C445.711 585.5 466.745 557.552 446.432 543.4C418.626 550.356 392.383 570.795 377.723 595.361C363.691 619.331 359.651 647.858 366.476 674.781C381.907 734.563 442.621 762.612 499.419 746.109C514.755 741.654 529.084 735.83 543.139 728.19C551.964 723.589 560.445 717.453 569.257 713.01C599.193 697.785 634.782 688.084 666.029 705.841C680.358 713.816 691.063 726.904 695.667 742.726C701.758 763.662 691.625 788.473 669.585 794.465C653.87 798.738 634.252 790.112 631.449 773.048C631.688 771.152 631.434 770.218 632.351 768.563C633.112 770.653 633.772 772.309 634.89 774.253C638.114 779.915 643.51 784.016 649.83 785.603C656.688 787.295 663.94 786.137 669.93 782.394C676.224 778.475 680.682 772.195 682.303 764.96C686.458 746.34 672.471 728.511 655.351 722.824C612.904 708.721 574.654 743.013 540.749 762.555C528.858 769.33 516.386 775.031 503.482 779.59C476.593 789.024 447.644 790.965 419.735 785.206C378.994 776.538 343.46 751.828 321.154 716.652C268.919 634.239 299.99 524.869 381.166 474.873C412.152 455.788 456.263 441.414 492.717 449.609C461.504 425.389 425.93 430.752 392.704 446.937C399.434 422.017 393.357 401.799 368.526 390.374C350.388 382.028 331.321 386.704 313.467 393.631C329.418 381.323 356.022 357.25 362.023 338.432C376.564 292.833 341.649 255.053 301.502 239.426C292.277 235.835 283.704 233.249 274.446 230.166Z"/>
</svg>
